<mxfile host="Electron" modified="2023-12-03T19:09:19.811Z" agent="Mozilla/5.0 (Windows NT 10.0; Win64; x64) AppleWebKit/537.36 (KHTML, like Gecko) draw.io/22.0.2 Chrome/114.0.5735.289 Electron/25.8.4 Safari/537.36" etag="PS7siBKAbFa6D-roL-BK" version="22.0.2" type="device">
  <diagram id="C5RBs43oDa-KdzZeNtuy" name="Page-1">
    <mxGraphModel dx="3114" dy="2757" grid="1" gridSize="10" guides="1" tooltips="1" connect="1" arrows="1" fold="1" page="1" pageScale="1" pageWidth="827" pageHeight="1169" background="none" math="0" shadow="0">
      <root>
        <mxCell id="WIyWlLk6GJQsqaUBKTNV-0" />
        <mxCell id="HUSXWBsQ4Mg_SYfQPAs_-149" value="Слой без названия" parent="WIyWlLk6GJQsqaUBKTNV-0" visible="0" />
        <mxCell id="WIyWlLk6GJQsqaUBKTNV-1" parent="WIyWlLk6GJQsqaUBKTNV-0" />
        <mxCell id="O6kwRCL_06sW0Yhjf2Mc-2" value="начало" style="ellipse;whiteSpace=wrap;html=1;strokeColor=#36393d;fillColor=#eeeeee;fontColor=#000000;" parent="WIyWlLk6GJQsqaUBKTNV-1" vertex="1">
          <mxGeometry x="-770" y="30" width="120" height="50" as="geometry" />
        </mxCell>
        <mxCell id="CJra_WSzJUt3smpGOyG3-6" value="" style="rounded=0;html=1;jettySize=auto;orthogonalLoop=1;fontSize=11;endArrow=block;endFill=0;endSize=8;strokeWidth=1;shadow=0;labelBackgroundColor=none;edgeStyle=orthogonalEdgeStyle;strokeColor=#36393d;fillColor=#eeeeee;fontColor=#000000;" parent="WIyWlLk6GJQsqaUBKTNV-1" edge="1">
          <mxGeometry relative="1" as="geometry">
            <mxPoint x="-560" y="410" as="sourcePoint" />
            <mxPoint x="-559.73" y="440" as="targetPoint" />
          </mxGeometry>
        </mxCell>
        <mxCell id="CJra_WSzJUt3smpGOyG3-31" value="&lt;font style=&quot;font-size: 11px;&quot;&gt;Впишите пределы интегрирования:&lt;/font&gt;" style="shape=parallelogram;perimeter=parallelogramPerimeter;whiteSpace=wrap;html=1;fixedSize=1;strokeColor=#36393d;fillColor=#eeeeee;fontColor=#000000;" parent="WIyWlLk6GJQsqaUBKTNV-1" vertex="1">
          <mxGeometry x="-770" y="110" width="120" height="50" as="geometry" />
        </mxCell>
        <mxCell id="CJra_WSzJUt3smpGOyG3-32" value="" style="rounded=0;html=1;jettySize=auto;orthogonalLoop=1;fontSize=11;endArrow=block;endFill=0;endSize=8;strokeWidth=1;shadow=0;labelBackgroundColor=none;edgeStyle=orthogonalEdgeStyle;strokeColor=#36393d;fillColor=#eeeeee;fontColor=#000000;" parent="WIyWlLk6GJQsqaUBKTNV-1" edge="1">
          <mxGeometry relative="1" as="geometry">
            <mxPoint x="-710.34" y="80" as="sourcePoint" />
            <mxPoint x="-710.07" y="110" as="targetPoint" />
          </mxGeometry>
        </mxCell>
        <mxCell id="gXV8-5lS1U5zjnlFUvk6-14" value="&lt;font style=&quot;font-size: 14px;&quot;&gt;f = 0&lt;/font&gt;" style="rhombus;whiteSpace=wrap;html=1;shadow=0;fontFamily=Helvetica;fontSize=12;align=center;strokeWidth=1;spacing=6;spacingTop=-4;strokeColor=#36393d;fillColor=#eeeeee;fontColor=#000000;" parent="WIyWlLk6GJQsqaUBKTNV-1" vertex="1">
          <mxGeometry x="-620" y="440" width="120" height="80" as="geometry" />
        </mxCell>
        <mxCell id="gXV8-5lS1U5zjnlFUvk6-15" value="" style="rounded=0;html=1;jettySize=auto;orthogonalLoop=1;fontSize=11;endArrow=block;endFill=0;endSize=8;strokeWidth=1;shadow=0;labelBackgroundColor=none;edgeStyle=orthogonalEdgeStyle;strokeColor=#36393d;fillColor=#eeeeee;fontColor=#000000;exitX=0.5;exitY=1;exitDx=0;exitDy=0;" parent="WIyWlLk6GJQsqaUBKTNV-1" source="gXV8-5lS1U5zjnlFUvk6-14" edge="1">
          <mxGeometry relative="1" as="geometry">
            <mxPoint x="-390.37" y="430" as="sourcePoint" />
            <mxPoint x="-560" y="550" as="targetPoint" />
          </mxGeometry>
        </mxCell>
        <mxCell id="Kg9K-jLbq-SvP9runcIR-18" value="конец" style="ellipse;whiteSpace=wrap;html=1;strokeColor=#36393d;fillColor=#eeeeee;fontColor=#000000;" parent="WIyWlLk6GJQsqaUBKTNV-1" vertex="1">
          <mxGeometry x="-620" y="640" width="120" height="50" as="geometry" />
        </mxCell>
        <mxCell id="nKaHtaXbYxPYXS3pLccz-5" value="" style="rounded=0;html=1;jettySize=auto;orthogonalLoop=1;fontSize=11;endArrow=block;endFill=0;endSize=8;strokeWidth=1;shadow=0;labelBackgroundColor=none;edgeStyle=orthogonalEdgeStyle;strokeColor=#36393d;fillColor=#eeeeee;fontColor=#000000;exitX=0.5;exitY=1;exitDx=0;exitDy=0;" parent="WIyWlLk6GJQsqaUBKTNV-1" edge="1" source="HUSXWBsQ4Mg_SYfQPAs_-49">
          <mxGeometry relative="1" as="geometry">
            <mxPoint x="-560.4300000000001" y="610" as="sourcePoint" />
            <mxPoint x="-560.1600000000001" y="640" as="targetPoint" />
          </mxGeometry>
        </mxCell>
        <mxCell id="HUSXWBsQ4Mg_SYfQPAs_-13" value="ввод a,b" style="shape=parallelogram;perimeter=parallelogramPerimeter;whiteSpace=wrap;html=1;fixedSize=1;strokeColor=#36393d;fillColor=#eeeeee;fontColor=#000000;" vertex="1" parent="WIyWlLk6GJQsqaUBKTNV-1">
          <mxGeometry x="-770" y="190" width="120" height="50" as="geometry" />
        </mxCell>
        <mxCell id="HUSXWBsQ4Mg_SYfQPAs_-14" value="" style="rounded=0;html=1;jettySize=auto;orthogonalLoop=1;fontSize=11;endArrow=block;endFill=0;endSize=8;strokeWidth=1;shadow=0;labelBackgroundColor=none;edgeStyle=orthogonalEdgeStyle;strokeColor=#36393d;fillColor=#eeeeee;fontColor=#000000;" edge="1" parent="WIyWlLk6GJQsqaUBKTNV-1">
          <mxGeometry relative="1" as="geometry">
            <mxPoint x="-710.34" y="160" as="sourcePoint" />
            <mxPoint x="-710.07" y="190" as="targetPoint" />
          </mxGeometry>
        </mxCell>
        <mxCell id="HUSXWBsQ4Mg_SYfQPAs_-15" value="Пределы интегрирования&lt;br&gt;&amp;nbsp;[&#39;,a,&#39; ; &#39;,b,&#39;]" style="shape=parallelogram;perimeter=parallelogramPerimeter;whiteSpace=wrap;html=1;fixedSize=1;strokeColor=#36393d;fillColor=#eeeeee;fontColor=#000000;" vertex="1" parent="WIyWlLk6GJQsqaUBKTNV-1">
          <mxGeometry x="-770" y="270" width="120" height="50" as="geometry" />
        </mxCell>
        <mxCell id="HUSXWBsQ4Mg_SYfQPAs_-16" value="" style="rounded=0;html=1;jettySize=auto;orthogonalLoop=1;fontSize=11;endArrow=block;endFill=0;endSize=8;strokeWidth=1;shadow=0;labelBackgroundColor=none;edgeStyle=orthogonalEdgeStyle;strokeColor=#36393d;fillColor=#eeeeee;fontColor=#000000;" edge="1" parent="WIyWlLk6GJQsqaUBKTNV-1">
          <mxGeometry relative="1" as="geometry">
            <mxPoint x="-710.34" y="240" as="sourcePoint" />
            <mxPoint x="-710.07" y="270" as="targetPoint" />
          </mxGeometry>
        </mxCell>
        <mxCell id="HUSXWBsQ4Mg_SYfQPAs_-17" value="&lt;font style=&quot;font-size: 9px;&quot;&gt;Выберите действие, которое хотите &lt;br&gt;выполнить&lt;/font&gt;" style="shape=parallelogram;perimeter=parallelogramPerimeter;whiteSpace=wrap;html=1;fixedSize=1;strokeColor=#36393d;fillColor=#eeeeee;fontColor=#000000;" vertex="1" parent="WIyWlLk6GJQsqaUBKTNV-1">
          <mxGeometry x="-770" y="350" width="120" height="50" as="geometry" />
        </mxCell>
        <mxCell id="HUSXWBsQ4Mg_SYfQPAs_-18" value="" style="rounded=0;html=1;jettySize=auto;orthogonalLoop=1;fontSize=11;endArrow=block;endFill=0;endSize=8;strokeWidth=1;shadow=0;labelBackgroundColor=none;edgeStyle=orthogonalEdgeStyle;strokeColor=#36393d;fillColor=#eeeeee;fontColor=#000000;" edge="1" parent="WIyWlLk6GJQsqaUBKTNV-1">
          <mxGeometry relative="1" as="geometry">
            <mxPoint x="-710.34" y="320" as="sourcePoint" />
            <mxPoint x="-710.07" y="350" as="targetPoint" />
          </mxGeometry>
        </mxCell>
        <mxCell id="HUSXWBsQ4Mg_SYfQPAs_-19" value="0 - Выход из программы" style="shape=parallelogram;perimeter=parallelogramPerimeter;whiteSpace=wrap;html=1;fixedSize=1;strokeColor=#36393d;fillColor=#eeeeee;fontColor=#000000;" vertex="1" parent="WIyWlLk6GJQsqaUBKTNV-1">
          <mxGeometry x="-770" y="430" width="120" height="50" as="geometry" />
        </mxCell>
        <mxCell id="HUSXWBsQ4Mg_SYfQPAs_-20" value="" style="rounded=0;html=1;jettySize=auto;orthogonalLoop=1;fontSize=11;endArrow=block;endFill=0;endSize=8;strokeWidth=1;shadow=0;labelBackgroundColor=none;edgeStyle=orthogonalEdgeStyle;strokeColor=#36393d;fillColor=#eeeeee;fontColor=#000000;" edge="1" parent="WIyWlLk6GJQsqaUBKTNV-1">
          <mxGeometry relative="1" as="geometry">
            <mxPoint x="-710.34" y="400" as="sourcePoint" />
            <mxPoint x="-710.07" y="430" as="targetPoint" />
          </mxGeometry>
        </mxCell>
        <mxCell id="HUSXWBsQ4Mg_SYfQPAs_-21" value="1 – Методом интеграла" style="shape=parallelogram;perimeter=parallelogramPerimeter;whiteSpace=wrap;html=1;fixedSize=1;strokeColor=#36393d;fillColor=#eeeeee;fontColor=#000000;" vertex="1" parent="WIyWlLk6GJQsqaUBKTNV-1">
          <mxGeometry x="-620" y="40" width="120" height="50" as="geometry" />
        </mxCell>
        <mxCell id="HUSXWBsQ4Mg_SYfQPAs_-22" value="" style="rounded=0;html=1;jettySize=auto;orthogonalLoop=1;fontSize=11;endArrow=block;endFill=0;endSize=8;strokeWidth=1;shadow=0;labelBackgroundColor=none;edgeStyle=orthogonalEdgeStyle;strokeColor=#36393d;fillColor=#eeeeee;fontColor=#000000;entryX=0.5;entryY=0;entryDx=0;entryDy=0;" edge="1" parent="WIyWlLk6GJQsqaUBKTNV-1" target="HUSXWBsQ4Mg_SYfQPAs_-21">
          <mxGeometry relative="1" as="geometry">
            <mxPoint x="-710.34" y="480" as="sourcePoint" />
            <mxPoint x="-710.07" y="510" as="targetPoint" />
            <Array as="points">
              <mxPoint x="-710" y="510" />
              <mxPoint x="-630" y="510" />
              <mxPoint x="-630" y="20" />
              <mxPoint x="-560" y="20" />
            </Array>
          </mxGeometry>
        </mxCell>
        <mxCell id="HUSXWBsQ4Mg_SYfQPAs_-23" value="&lt;font style=&quot;font-size: 9px;&quot;&gt;2 – Методом левых прямоугольников&lt;/font&gt;" style="shape=parallelogram;perimeter=parallelogramPerimeter;whiteSpace=wrap;html=1;fixedSize=1;strokeColor=#36393d;fillColor=#eeeeee;fontColor=#000000;" vertex="1" parent="WIyWlLk6GJQsqaUBKTNV-1">
          <mxGeometry x="-620" y="120" width="120" height="50" as="geometry" />
        </mxCell>
        <mxCell id="HUSXWBsQ4Mg_SYfQPAs_-24" value="" style="rounded=0;html=1;jettySize=auto;orthogonalLoop=1;fontSize=11;endArrow=block;endFill=0;endSize=8;strokeWidth=1;shadow=0;labelBackgroundColor=none;edgeStyle=orthogonalEdgeStyle;strokeColor=#36393d;fillColor=#eeeeee;fontColor=#000000;" edge="1" parent="WIyWlLk6GJQsqaUBKTNV-1">
          <mxGeometry relative="1" as="geometry">
            <mxPoint x="-560.34" y="90" as="sourcePoint" />
            <mxPoint x="-560.07" y="120" as="targetPoint" />
          </mxGeometry>
        </mxCell>
        <mxCell id="HUSXWBsQ4Mg_SYfQPAs_-25" value="&lt;font style=&quot;font-size: 7px;&quot;&gt;3 – Оценка погрешности полученного результата &lt;br&gt;между двумя методами&lt;/font&gt;" style="shape=parallelogram;perimeter=parallelogramPerimeter;whiteSpace=wrap;html=1;fixedSize=1;strokeColor=#36393d;fillColor=#eeeeee;fontColor=#000000;" vertex="1" parent="WIyWlLk6GJQsqaUBKTNV-1">
          <mxGeometry x="-620" y="200" width="120" height="50" as="geometry" />
        </mxCell>
        <mxCell id="HUSXWBsQ4Mg_SYfQPAs_-26" value="" style="rounded=0;html=1;jettySize=auto;orthogonalLoop=1;fontSize=11;endArrow=block;endFill=0;endSize=8;strokeWidth=1;shadow=0;labelBackgroundColor=none;edgeStyle=orthogonalEdgeStyle;strokeColor=#36393d;fillColor=#eeeeee;fontColor=#000000;" edge="1" parent="WIyWlLk6GJQsqaUBKTNV-1">
          <mxGeometry relative="1" as="geometry">
            <mxPoint x="-560.34" y="170" as="sourcePoint" />
            <mxPoint x="-560.07" y="200" as="targetPoint" />
          </mxGeometry>
        </mxCell>
        <mxCell id="HUSXWBsQ4Mg_SYfQPAs_-27" value="&lt;font style=&quot;font-size: 11px;&quot;&gt;4 – Назначение&lt;br&gt;&amp;nbsp;других пределов&lt;/font&gt;" style="shape=parallelogram;perimeter=parallelogramPerimeter;whiteSpace=wrap;html=1;fixedSize=1;strokeColor=#36393d;fillColor=#eeeeee;fontColor=#000000;" vertex="1" parent="WIyWlLk6GJQsqaUBKTNV-1">
          <mxGeometry x="-620" y="280" width="120" height="50" as="geometry" />
        </mxCell>
        <mxCell id="HUSXWBsQ4Mg_SYfQPAs_-28" value="" style="rounded=0;html=1;jettySize=auto;orthogonalLoop=1;fontSize=11;endArrow=block;endFill=0;endSize=8;strokeWidth=1;shadow=0;labelBackgroundColor=none;edgeStyle=orthogonalEdgeStyle;strokeColor=#36393d;fillColor=#eeeeee;fontColor=#000000;" edge="1" parent="WIyWlLk6GJQsqaUBKTNV-1">
          <mxGeometry relative="1" as="geometry">
            <mxPoint x="-560.34" y="250" as="sourcePoint" />
            <mxPoint x="-560.07" y="280" as="targetPoint" />
          </mxGeometry>
        </mxCell>
        <mxCell id="HUSXWBsQ4Mg_SYfQPAs_-29" value="ввод f" style="shape=parallelogram;perimeter=parallelogramPerimeter;whiteSpace=wrap;html=1;fixedSize=1;strokeColor=#36393d;fillColor=#eeeeee;fontColor=#000000;" vertex="1" parent="WIyWlLk6GJQsqaUBKTNV-1">
          <mxGeometry x="-620" y="360" width="120" height="50" as="geometry" />
        </mxCell>
        <mxCell id="HUSXWBsQ4Mg_SYfQPAs_-30" value="" style="rounded=0;html=1;jettySize=auto;orthogonalLoop=1;fontSize=11;endArrow=block;endFill=0;endSize=8;strokeWidth=1;shadow=0;labelBackgroundColor=none;edgeStyle=orthogonalEdgeStyle;strokeColor=#36393d;fillColor=#eeeeee;fontColor=#000000;" edge="1" parent="WIyWlLk6GJQsqaUBKTNV-1">
          <mxGeometry relative="1" as="geometry">
            <mxPoint x="-560.34" y="330" as="sourcePoint" />
            <mxPoint x="-560.07" y="360" as="targetPoint" />
          </mxGeometry>
        </mxCell>
        <mxCell id="HUSXWBsQ4Mg_SYfQPAs_-31" value="" style="rounded=0;html=1;jettySize=auto;orthogonalLoop=1;fontSize=11;endArrow=block;endFill=0;endSize=8;strokeWidth=1;shadow=0;labelBackgroundColor=none;edgeStyle=orthogonalEdgeStyle;strokeColor=#36393d;fillColor=#eeeeee;fontColor=#000000;exitX=0.5;exitY=1;exitDx=0;exitDy=0;entryX=0.5;entryY=0;entryDx=0;entryDy=0;" edge="1" parent="WIyWlLk6GJQsqaUBKTNV-1" target="HUSXWBsQ4Mg_SYfQPAs_-32">
          <mxGeometry relative="1" as="geometry">
            <mxPoint x="-500" y="480" as="sourcePoint" />
            <mxPoint x="-480" y="480" as="targetPoint" />
            <Array as="points">
              <mxPoint x="-450" y="480" />
            </Array>
          </mxGeometry>
        </mxCell>
        <mxCell id="HUSXWBsQ4Mg_SYfQPAs_-32" value="&lt;font style=&quot;font-size: 14px;&quot;&gt;f = 1&lt;/font&gt;" style="rhombus;whiteSpace=wrap;html=1;shadow=0;fontFamily=Helvetica;fontSize=12;align=center;strokeWidth=1;spacing=6;spacingTop=-4;strokeColor=#36393d;fillColor=#eeeeee;fontColor=#000000;" vertex="1" parent="WIyWlLk6GJQsqaUBKTNV-1">
          <mxGeometry x="-510" y="500" width="120" height="80" as="geometry" />
        </mxCell>
        <mxCell id="HUSXWBsQ4Mg_SYfQPAs_-33" value="" style="rounded=0;html=1;jettySize=auto;orthogonalLoop=1;fontSize=11;endArrow=block;endFill=0;endSize=8;strokeWidth=1;shadow=0;labelBackgroundColor=none;edgeStyle=orthogonalEdgeStyle;strokeColor=#36393d;fillColor=#eeeeee;fontColor=#000000;exitX=0.5;exitY=1;exitDx=0;exitDy=0;" edge="1" parent="WIyWlLk6GJQsqaUBKTNV-1" source="HUSXWBsQ4Mg_SYfQPAs_-32">
          <mxGeometry relative="1" as="geometry">
            <mxPoint x="-280.37" y="490" as="sourcePoint" />
            <mxPoint x="-450" y="610" as="targetPoint" />
          </mxGeometry>
        </mxCell>
        <mxCell id="HUSXWBsQ4Mg_SYfQPAs_-35" value="&lt;font style=&quot;font-size: 14px;&quot;&gt;f = 2&lt;/font&gt;" style="rhombus;whiteSpace=wrap;html=1;shadow=0;fontFamily=Helvetica;fontSize=12;align=center;strokeWidth=1;spacing=6;spacingTop=-4;strokeColor=#36393d;fillColor=#eeeeee;fontColor=#000000;" vertex="1" parent="WIyWlLk6GJQsqaUBKTNV-1">
          <mxGeometry x="-400" y="560" width="120" height="80" as="geometry" />
        </mxCell>
        <mxCell id="HUSXWBsQ4Mg_SYfQPAs_-36" value="" style="rounded=0;html=1;jettySize=auto;orthogonalLoop=1;fontSize=11;endArrow=block;endFill=0;endSize=8;strokeWidth=1;shadow=0;labelBackgroundColor=none;edgeStyle=orthogonalEdgeStyle;strokeColor=#36393d;fillColor=#eeeeee;fontColor=#000000;exitX=0.5;exitY=1;exitDx=0;exitDy=0;" edge="1" parent="WIyWlLk6GJQsqaUBKTNV-1" source="HUSXWBsQ4Mg_SYfQPAs_-35">
          <mxGeometry relative="1" as="geometry">
            <mxPoint x="-340.02" y="650" as="sourcePoint" />
            <mxPoint x="-340.02" y="670" as="targetPoint" />
            <Array as="points" />
          </mxGeometry>
        </mxCell>
        <mxCell id="HUSXWBsQ4Mg_SYfQPAs_-37" value="" style="rounded=0;html=1;jettySize=auto;orthogonalLoop=1;fontSize=11;endArrow=block;endFill=0;endSize=8;strokeWidth=1;shadow=0;labelBackgroundColor=none;edgeStyle=orthogonalEdgeStyle;strokeColor=#36393d;fillColor=#eeeeee;fontColor=#000000;exitX=0.5;exitY=1;exitDx=0;exitDy=0;entryX=0.5;entryY=0;entryDx=0;entryDy=0;" edge="1" parent="WIyWlLk6GJQsqaUBKTNV-1">
          <mxGeometry relative="1" as="geometry">
            <mxPoint x="-280" y="600" as="sourcePoint" />
            <mxPoint x="-230" y="620" as="targetPoint" />
            <Array as="points">
              <mxPoint x="-230" y="600" />
            </Array>
          </mxGeometry>
        </mxCell>
        <mxCell id="HUSXWBsQ4Mg_SYfQPAs_-38" value="&lt;font style=&quot;font-size: 14px;&quot;&gt;f = 3&lt;/font&gt;" style="rhombus;whiteSpace=wrap;html=1;shadow=0;fontFamily=Helvetica;fontSize=12;align=center;strokeWidth=1;spacing=6;spacingTop=-4;strokeColor=#36393d;fillColor=#eeeeee;fontColor=#000000;" vertex="1" parent="WIyWlLk6GJQsqaUBKTNV-1">
          <mxGeometry x="-290" y="619" width="120" height="80" as="geometry" />
        </mxCell>
        <mxCell id="HUSXWBsQ4Mg_SYfQPAs_-40" value="&lt;font style=&quot;font-size: 14px;&quot;&gt;f = 4&lt;/font&gt;" style="rhombus;whiteSpace=wrap;html=1;shadow=0;fontFamily=Helvetica;fontSize=12;align=center;strokeWidth=1;spacing=6;spacingTop=-4;strokeColor=#36393d;fillColor=#eeeeee;fontColor=#000000;" vertex="1" parent="WIyWlLk6GJQsqaUBKTNV-1">
          <mxGeometry x="-180" y="680" width="120" height="80" as="geometry" />
        </mxCell>
        <mxCell id="HUSXWBsQ4Mg_SYfQPAs_-45" value="" style="rounded=0;html=1;jettySize=auto;orthogonalLoop=1;fontSize=11;endArrow=block;endFill=0;endSize=8;strokeWidth=1;shadow=0;labelBackgroundColor=none;edgeStyle=orthogonalEdgeStyle;strokeColor=#36393d;fillColor=#eeeeee;fontColor=#000000;exitX=0.5;exitY=1;exitDx=0;exitDy=0;entryX=0.5;entryY=0;entryDx=0;entryDy=0;" edge="1" parent="WIyWlLk6GJQsqaUBKTNV-1">
          <mxGeometry relative="1" as="geometry">
            <mxPoint x="-390" y="540" as="sourcePoint" />
            <mxPoint x="-340" y="560" as="targetPoint" />
            <Array as="points">
              <mxPoint x="-340" y="540" />
            </Array>
          </mxGeometry>
        </mxCell>
        <mxCell id="HUSXWBsQ4Mg_SYfQPAs_-46" value="" style="rounded=0;html=1;jettySize=auto;orthogonalLoop=1;fontSize=11;endArrow=block;endFill=0;endSize=8;strokeWidth=1;shadow=0;labelBackgroundColor=none;edgeStyle=orthogonalEdgeStyle;strokeColor=#36393d;fillColor=#eeeeee;fontColor=#000000;exitX=0.5;exitY=1;exitDx=0;exitDy=0;" edge="1" parent="WIyWlLk6GJQsqaUBKTNV-1">
          <mxGeometry relative="1" as="geometry">
            <mxPoint x="-230.24" y="699" as="sourcePoint" />
            <mxPoint x="-230.26" y="729" as="targetPoint" />
            <Array as="points" />
          </mxGeometry>
        </mxCell>
        <mxCell id="HUSXWBsQ4Mg_SYfQPAs_-47" value="" style="rounded=0;html=1;jettySize=auto;orthogonalLoop=1;fontSize=11;endArrow=block;endFill=0;endSize=8;strokeWidth=1;shadow=0;labelBackgroundColor=none;edgeStyle=orthogonalEdgeStyle;strokeColor=#36393d;fillColor=#eeeeee;fontColor=#000000;exitX=1;exitY=0.5;exitDx=0;exitDy=0;" edge="1" parent="WIyWlLk6GJQsqaUBKTNV-1" source="HUSXWBsQ4Mg_SYfQPAs_-38" target="HUSXWBsQ4Mg_SYfQPAs_-40">
          <mxGeometry relative="1" as="geometry">
            <mxPoint x="-160" y="660" as="sourcePoint" />
            <mxPoint x="-110" y="680" as="targetPoint" />
            <Array as="points">
              <mxPoint x="-170" y="660" />
              <mxPoint x="-120" y="660" />
            </Array>
          </mxGeometry>
        </mxCell>
        <mxCell id="HUSXWBsQ4Mg_SYfQPAs_-48" value="" style="rounded=0;html=1;jettySize=auto;orthogonalLoop=1;fontSize=11;endArrow=block;endFill=0;endSize=8;strokeWidth=1;shadow=0;labelBackgroundColor=none;edgeStyle=orthogonalEdgeStyle;strokeColor=#36393d;fillColor=#eeeeee;fontColor=#000000;exitX=0.5;exitY=1;exitDx=0;exitDy=0;" edge="1" parent="WIyWlLk6GJQsqaUBKTNV-1">
          <mxGeometry relative="1" as="geometry">
            <mxPoint x="-60" y="720" as="sourcePoint" />
            <mxPoint x="-560" y="340" as="targetPoint" />
            <Array as="points">
              <mxPoint x="-50" y="720" />
              <mxPoint x="-50" y="340" />
            </Array>
          </mxGeometry>
        </mxCell>
        <mxCell id="HUSXWBsQ4Mg_SYfQPAs_-49" value="&lt;font color=&quot;#0a0a0a&quot;&gt;exit&lt;/font&gt;" style="rounded=0;whiteSpace=wrap;html=1;fillColor=#EEEEEE;strokeColor=#36393d;" vertex="1" parent="WIyWlLk6GJQsqaUBKTNV-1">
          <mxGeometry x="-620" y="550" width="120" height="40" as="geometry" />
        </mxCell>
        <mxCell id="HUSXWBsQ4Mg_SYfQPAs_-50" value="" style="rounded=0;whiteSpace=wrap;html=1;fillColor=#EEEEEE;strokeColor=#36393d;" vertex="1" parent="WIyWlLk6GJQsqaUBKTNV-1">
          <mxGeometry x="-510" y="610" width="120" height="40" as="geometry" />
        </mxCell>
        <mxCell id="HUSXWBsQ4Mg_SYfQPAs_-51" value="" style="rounded=0;whiteSpace=wrap;html=1;fillColor=#EEEEEE;strokeColor=#36393d;" vertex="1" parent="WIyWlLk6GJQsqaUBKTNV-1">
          <mxGeometry x="-400" y="670" width="120" height="40" as="geometry" />
        </mxCell>
        <mxCell id="HUSXWBsQ4Mg_SYfQPAs_-52" value="" style="rounded=0;whiteSpace=wrap;html=1;fillColor=#EEEEEE;strokeColor=#36393d;" vertex="1" parent="WIyWlLk6GJQsqaUBKTNV-1">
          <mxGeometry x="-290" y="730" width="120" height="40" as="geometry" />
        </mxCell>
        <mxCell id="HUSXWBsQ4Mg_SYfQPAs_-55" value="&lt;font color=&quot;#0a0a0a&quot;&gt;ssint&lt;/font&gt;" style="rounded=0;whiteSpace=wrap;html=1;fillColor=#EEEEEE;strokeColor=#36393d;" vertex="1" parent="WIyWlLk6GJQsqaUBKTNV-1">
          <mxGeometry x="-510" y="610" width="120" height="40" as="geometry" />
        </mxCell>
        <mxCell id="HUSXWBsQ4Mg_SYfQPAs_-56" value="&lt;font color=&quot;#0a0a0a&quot;&gt;sspryam&lt;/font&gt;" style="rounded=0;whiteSpace=wrap;html=1;fillColor=#EEEEEE;strokeColor=#36393d;" vertex="1" parent="WIyWlLk6GJQsqaUBKTNV-1">
          <mxGeometry x="-400" y="670" width="120" height="40" as="geometry" />
        </mxCell>
        <mxCell id="HUSXWBsQ4Mg_SYfQPAs_-57" value="&lt;font color=&quot;#0a0a0a&quot;&gt;pogr&lt;/font&gt;" style="rounded=0;whiteSpace=wrap;html=1;fillColor=#EEEEEE;strokeColor=#36393d;" vertex="1" parent="WIyWlLk6GJQsqaUBKTNV-1">
          <mxGeometry x="-290" y="730" width="120" height="40" as="geometry" />
        </mxCell>
        <mxCell id="HUSXWBsQ4Mg_SYfQPAs_-58" value="" style="rounded=0;html=1;jettySize=auto;orthogonalLoop=1;fontSize=11;endArrow=block;endFill=0;endSize=8;strokeWidth=1;shadow=0;labelBackgroundColor=none;edgeStyle=orthogonalEdgeStyle;strokeColor=#36393d;fillColor=#eeeeee;fontColor=#000000;exitX=0.5;exitY=1;exitDx=0;exitDy=0;" edge="1" parent="WIyWlLk6GJQsqaUBKTNV-1">
          <mxGeometry relative="1" as="geometry">
            <mxPoint x="-120.24000000000001" y="760" as="sourcePoint" />
            <mxPoint x="-120.25999999999999" y="790" as="targetPoint" />
            <Array as="points" />
          </mxGeometry>
        </mxCell>
        <mxCell id="HUSXWBsQ4Mg_SYfQPAs_-59" value="&lt;font color=&quot;#0a0a0a&quot;&gt;clear&lt;/font&gt;" style="rounded=0;whiteSpace=wrap;html=1;fillColor=#EEEEEE;strokeColor=#36393d;" vertex="1" parent="WIyWlLk6GJQsqaUBKTNV-1">
          <mxGeometry x="-180" y="791" width="120" height="40" as="geometry" />
        </mxCell>
        <mxCell id="HUSXWBsQ4Mg_SYfQPAs_-62" value="" style="endArrow=none;html=1;rounded=0;strokeColor=#36393d;" edge="1" parent="WIyWlLk6GJQsqaUBKTNV-1">
          <mxGeometry width="50" height="50" relative="1" as="geometry">
            <mxPoint x="-390" y="710" as="sourcePoint" />
            <mxPoint x="-390" y="670" as="targetPoint" />
          </mxGeometry>
        </mxCell>
        <mxCell id="HUSXWBsQ4Mg_SYfQPAs_-64" value="" style="endArrow=none;html=1;rounded=0;strokeColor=#36393d;" edge="1" parent="WIyWlLk6GJQsqaUBKTNV-1">
          <mxGeometry width="50" height="50" relative="1" as="geometry">
            <mxPoint x="-290.33" y="710" as="sourcePoint" />
            <mxPoint x="-290.33" y="670" as="targetPoint" />
          </mxGeometry>
        </mxCell>
        <mxCell id="HUSXWBsQ4Mg_SYfQPAs_-65" value="" style="endArrow=none;html=1;rounded=0;strokeColor=#36393d;" edge="1" parent="WIyWlLk6GJQsqaUBKTNV-1">
          <mxGeometry width="50" height="50" relative="1" as="geometry">
            <mxPoint x="-280" y="770" as="sourcePoint" />
            <mxPoint x="-280" y="730" as="targetPoint" />
          </mxGeometry>
        </mxCell>
        <mxCell id="HUSXWBsQ4Mg_SYfQPAs_-66" value="" style="endArrow=none;html=1;rounded=0;strokeColor=#36393d;" edge="1" parent="WIyWlLk6GJQsqaUBKTNV-1">
          <mxGeometry width="50" height="50" relative="1" as="geometry">
            <mxPoint x="-180.33" y="770" as="sourcePoint" />
            <mxPoint x="-180.33" y="730" as="targetPoint" />
          </mxGeometry>
        </mxCell>
        <mxCell id="HUSXWBsQ4Mg_SYfQPAs_-67" value="" style="endArrow=none;html=1;rounded=0;strokeColor=#36393d;" edge="1" parent="WIyWlLk6GJQsqaUBKTNV-1">
          <mxGeometry width="50" height="50" relative="1" as="geometry">
            <mxPoint x="-170" y="831" as="sourcePoint" />
            <mxPoint x="-170" y="791" as="targetPoint" />
          </mxGeometry>
        </mxCell>
        <mxCell id="HUSXWBsQ4Mg_SYfQPAs_-68" value="" style="endArrow=none;html=1;rounded=0;strokeColor=#36393d;" edge="1" parent="WIyWlLk6GJQsqaUBKTNV-1">
          <mxGeometry width="50" height="50" relative="1" as="geometry">
            <mxPoint x="-70" y="831" as="sourcePoint" />
            <mxPoint x="-70" y="791" as="targetPoint" />
          </mxGeometry>
        </mxCell>
        <mxCell id="HUSXWBsQ4Mg_SYfQPAs_-69" value="" style="endArrow=none;html=1;rounded=0;strokeColor=#36393d;" edge="1" parent="WIyWlLk6GJQsqaUBKTNV-1">
          <mxGeometry width="50" height="50" relative="1" as="geometry">
            <mxPoint x="-400" y="650" as="sourcePoint" />
            <mxPoint x="-400" y="610" as="targetPoint" />
          </mxGeometry>
        </mxCell>
        <mxCell id="HUSXWBsQ4Mg_SYfQPAs_-70" value="" style="endArrow=none;html=1;rounded=0;strokeColor=#36393d;" edge="1" parent="WIyWlLk6GJQsqaUBKTNV-1">
          <mxGeometry width="50" height="50" relative="1" as="geometry">
            <mxPoint x="-500" y="650" as="sourcePoint" />
            <mxPoint x="-500" y="610" as="targetPoint" />
          </mxGeometry>
        </mxCell>
        <mxCell id="HUSXWBsQ4Mg_SYfQPAs_-71" value="" style="endArrow=none;html=1;rounded=0;strokeColor=#36393d;" edge="1" parent="WIyWlLk6GJQsqaUBKTNV-1">
          <mxGeometry width="50" height="50" relative="1" as="geometry">
            <mxPoint x="-510.33" y="590" as="sourcePoint" />
            <mxPoint x="-510.33" y="550" as="targetPoint" />
          </mxGeometry>
        </mxCell>
        <mxCell id="HUSXWBsQ4Mg_SYfQPAs_-72" value="" style="endArrow=none;html=1;rounded=0;strokeColor=#36393d;" edge="1" parent="WIyWlLk6GJQsqaUBKTNV-1">
          <mxGeometry width="50" height="50" relative="1" as="geometry">
            <mxPoint x="-610" y="590" as="sourcePoint" />
            <mxPoint x="-610" y="550" as="targetPoint" />
          </mxGeometry>
        </mxCell>
        <mxCell id="HUSXWBsQ4Mg_SYfQPAs_-73" value="начало" style="ellipse;whiteSpace=wrap;html=1;strokeColor=#36393d;fillColor=#eeeeee;fontColor=#000000;" vertex="1" parent="WIyWlLk6GJQsqaUBKTNV-1">
          <mxGeometry x="-1230" y="30" width="120" height="50" as="geometry" />
        </mxCell>
        <mxCell id="HUSXWBsQ4Mg_SYfQPAs_-74" value="&lt;font style=&quot;font-size: 11px;&quot;&gt;ввод it&lt;/font&gt;" style="shape=parallelogram;perimeter=parallelogramPerimeter;whiteSpace=wrap;html=1;fixedSize=1;strokeColor=#36393d;fillColor=#eeeeee;fontColor=#000000;" vertex="1" parent="WIyWlLk6GJQsqaUBKTNV-1">
          <mxGeometry x="-1230" y="110" width="120" height="50" as="geometry" />
        </mxCell>
        <mxCell id="HUSXWBsQ4Mg_SYfQPAs_-75" value="" style="rounded=0;html=1;jettySize=auto;orthogonalLoop=1;fontSize=11;endArrow=block;endFill=0;endSize=8;strokeWidth=1;shadow=0;labelBackgroundColor=none;edgeStyle=orthogonalEdgeStyle;strokeColor=#36393d;fillColor=#eeeeee;fontColor=#000000;" edge="1" parent="WIyWlLk6GJQsqaUBKTNV-1">
          <mxGeometry relative="1" as="geometry">
            <mxPoint x="-1170.3400000000001" y="80" as="sourcePoint" />
            <mxPoint x="-1170.0700000000002" y="110" as="targetPoint" />
          </mxGeometry>
        </mxCell>
        <mxCell id="HUSXWBsQ4Mg_SYfQPAs_-76" value="конец" style="ellipse;whiteSpace=wrap;html=1;strokeColor=#36393d;fillColor=#eeeeee;fontColor=#000000;" vertex="1" parent="WIyWlLk6GJQsqaUBKTNV-1">
          <mxGeometry x="-1230" y="270" width="120" height="50" as="geometry" />
        </mxCell>
        <mxCell id="HUSXWBsQ4Mg_SYfQPAs_-77" value="&lt;font style=&quot;font-size: 13px;&quot;&gt;((it*it*it)+(it*it)&lt;br&gt;-2*it-17)&lt;/font&gt;" style="shape=parallelogram;perimeter=parallelogramPerimeter;whiteSpace=wrap;html=1;fixedSize=1;strokeColor=#36393d;fillColor=#eeeeee;fontColor=#000000;" vertex="1" parent="WIyWlLk6GJQsqaUBKTNV-1">
          <mxGeometry x="-1230" y="190" width="120" height="50" as="geometry" />
        </mxCell>
        <mxCell id="HUSXWBsQ4Mg_SYfQPAs_-78" value="" style="rounded=0;html=1;jettySize=auto;orthogonalLoop=1;fontSize=11;endArrow=block;endFill=0;endSize=8;strokeWidth=1;shadow=0;labelBackgroundColor=none;edgeStyle=orthogonalEdgeStyle;strokeColor=#36393d;fillColor=#eeeeee;fontColor=#000000;" edge="1" parent="WIyWlLk6GJQsqaUBKTNV-1">
          <mxGeometry relative="1" as="geometry">
            <mxPoint x="-1170.3400000000001" y="160" as="sourcePoint" />
            <mxPoint x="-1170.0700000000002" y="190" as="targetPoint" />
          </mxGeometry>
        </mxCell>
        <mxCell id="HUSXWBsQ4Mg_SYfQPAs_-79" value="" style="rounded=0;html=1;jettySize=auto;orthogonalLoop=1;fontSize=11;endArrow=block;endFill=0;endSize=8;strokeWidth=1;shadow=0;labelBackgroundColor=none;edgeStyle=orthogonalEdgeStyle;strokeColor=#36393d;fillColor=#eeeeee;fontColor=#000000;" edge="1" parent="WIyWlLk6GJQsqaUBKTNV-1">
          <mxGeometry relative="1" as="geometry">
            <mxPoint x="-1170.17" y="240" as="sourcePoint" />
            <mxPoint x="-1169.9" y="270" as="targetPoint" />
          </mxGeometry>
        </mxCell>
        <mxCell id="HUSXWBsQ4Mg_SYfQPAs_-80" value="начало" style="ellipse;whiteSpace=wrap;html=1;strokeColor=#36393d;fillColor=#eeeeee;fontColor=#000000;" vertex="1" parent="WIyWlLk6GJQsqaUBKTNV-1">
          <mxGeometry x="-1420" y="40" width="120" height="50" as="geometry" />
        </mxCell>
        <mxCell id="HUSXWBsQ4Mg_SYfQPAs_-81" value="&lt;font style=&quot;font-size: 11px;&quot;&gt;ввод jt&lt;/font&gt;" style="shape=parallelogram;perimeter=parallelogramPerimeter;whiteSpace=wrap;html=1;fixedSize=1;strokeColor=#36393d;fillColor=#eeeeee;fontColor=#000000;" vertex="1" parent="WIyWlLk6GJQsqaUBKTNV-1">
          <mxGeometry x="-1420" y="120" width="120" height="50" as="geometry" />
        </mxCell>
        <mxCell id="HUSXWBsQ4Mg_SYfQPAs_-82" value="" style="rounded=0;html=1;jettySize=auto;orthogonalLoop=1;fontSize=11;endArrow=block;endFill=0;endSize=8;strokeWidth=1;shadow=0;labelBackgroundColor=none;edgeStyle=orthogonalEdgeStyle;strokeColor=#36393d;fillColor=#eeeeee;fontColor=#000000;" edge="1" parent="WIyWlLk6GJQsqaUBKTNV-1">
          <mxGeometry relative="1" as="geometry">
            <mxPoint x="-1360.3400000000001" y="90" as="sourcePoint" />
            <mxPoint x="-1360.0700000000002" y="120" as="targetPoint" />
          </mxGeometry>
        </mxCell>
        <mxCell id="HUSXWBsQ4Mg_SYfQPAs_-83" value="конец" style="ellipse;whiteSpace=wrap;html=1;strokeColor=#36393d;fillColor=#eeeeee;fontColor=#000000;" vertex="1" parent="WIyWlLk6GJQsqaUBKTNV-1">
          <mxGeometry x="-1420" y="280" width="120" height="50" as="geometry" />
        </mxCell>
        <mxCell id="HUSXWBsQ4Mg_SYfQPAs_-84" value="(((jt*jt*jt*jt)/4)-(jt*jt)-17*jt)" style="shape=parallelogram;perimeter=parallelogramPerimeter;whiteSpace=wrap;html=1;fixedSize=1;strokeColor=#36393d;fillColor=#eeeeee;fontColor=#000000;" vertex="1" parent="WIyWlLk6GJQsqaUBKTNV-1">
          <mxGeometry x="-1420" y="200" width="120" height="50" as="geometry" />
        </mxCell>
        <mxCell id="HUSXWBsQ4Mg_SYfQPAs_-85" value="" style="rounded=0;html=1;jettySize=auto;orthogonalLoop=1;fontSize=11;endArrow=block;endFill=0;endSize=8;strokeWidth=1;shadow=0;labelBackgroundColor=none;edgeStyle=orthogonalEdgeStyle;strokeColor=#36393d;fillColor=#eeeeee;fontColor=#000000;" edge="1" parent="WIyWlLk6GJQsqaUBKTNV-1">
          <mxGeometry relative="1" as="geometry">
            <mxPoint x="-1360.3400000000001" y="170" as="sourcePoint" />
            <mxPoint x="-1360.0700000000002" y="200" as="targetPoint" />
          </mxGeometry>
        </mxCell>
        <mxCell id="HUSXWBsQ4Mg_SYfQPAs_-86" value="" style="rounded=0;html=1;jettySize=auto;orthogonalLoop=1;fontSize=11;endArrow=block;endFill=0;endSize=8;strokeWidth=1;shadow=0;labelBackgroundColor=none;edgeStyle=orthogonalEdgeStyle;strokeColor=#36393d;fillColor=#eeeeee;fontColor=#000000;" edge="1" parent="WIyWlLk6GJQsqaUBKTNV-1">
          <mxGeometry relative="1" as="geometry">
            <mxPoint x="-1360.17" y="250" as="sourcePoint" />
            <mxPoint x="-1359.9" y="280" as="targetPoint" />
          </mxGeometry>
        </mxCell>
        <mxCell id="HUSXWBsQ4Mg_SYfQPAs_-87" value="начало" style="ellipse;whiteSpace=wrap;html=1;strokeColor=#36393d;fillColor=#eeeeee;fontColor=#000000;" vertex="1" parent="WIyWlLk6GJQsqaUBKTNV-1">
          <mxGeometry x="-1630" y="40" width="120" height="50" as="geometry" />
        </mxCell>
        <mxCell id="HUSXWBsQ4Mg_SYfQPAs_-88" value="&lt;font style=&quot;font-size: 11px;&quot;&gt;Для выхода в основное меню нажмите &amp;lt;Enter&amp;gt;&lt;/font&gt;" style="shape=parallelogram;perimeter=parallelogramPerimeter;whiteSpace=wrap;html=1;fixedSize=1;strokeColor=#36393d;fillColor=#eeeeee;fontColor=#000000;" vertex="1" parent="WIyWlLk6GJQsqaUBKTNV-1">
          <mxGeometry x="-1630" y="120" width="120" height="50" as="geometry" />
        </mxCell>
        <mxCell id="HUSXWBsQ4Mg_SYfQPAs_-89" value="" style="rounded=0;html=1;jettySize=auto;orthogonalLoop=1;fontSize=11;endArrow=block;endFill=0;endSize=8;strokeWidth=1;shadow=0;labelBackgroundColor=none;edgeStyle=orthogonalEdgeStyle;strokeColor=#36393d;fillColor=#eeeeee;fontColor=#000000;" edge="1" parent="WIyWlLk6GJQsqaUBKTNV-1">
          <mxGeometry relative="1" as="geometry">
            <mxPoint x="-1570.3400000000001" y="90" as="sourcePoint" />
            <mxPoint x="-1570.0700000000002" y="120" as="targetPoint" />
          </mxGeometry>
        </mxCell>
        <mxCell id="HUSXWBsQ4Mg_SYfQPAs_-90" value="конец" style="ellipse;whiteSpace=wrap;html=1;strokeColor=#36393d;fillColor=#eeeeee;fontColor=#000000;" vertex="1" parent="WIyWlLk6GJQsqaUBKTNV-1">
          <mxGeometry x="-1630" y="390" width="120" height="50" as="geometry" />
        </mxCell>
        <mxCell id="HUSXWBsQ4Mg_SYfQPAs_-94" value="&lt;font style=&quot;font-size: 14px;&quot;&gt;ch = #13&lt;/font&gt;" style="rhombus;whiteSpace=wrap;html=1;shadow=0;fontFamily=Helvetica;fontSize=12;align=center;strokeWidth=1;spacing=6;spacingTop=-4;strokeColor=#36393d;fillColor=#eeeeee;fontColor=#000000;" vertex="1" parent="WIyWlLk6GJQsqaUBKTNV-1">
          <mxGeometry x="-1630" y="280" width="120" height="80" as="geometry" />
        </mxCell>
        <mxCell id="HUSXWBsQ4Mg_SYfQPAs_-95" value="" style="rounded=0;html=1;jettySize=auto;orthogonalLoop=1;fontSize=11;endArrow=block;endFill=0;endSize=8;strokeWidth=1;shadow=0;labelBackgroundColor=none;edgeStyle=orthogonalEdgeStyle;strokeColor=#36393d;fillColor=#eeeeee;fontColor=#000000;exitX=0.5;exitY=1;exitDx=0;exitDy=0;" edge="1" parent="WIyWlLk6GJQsqaUBKTNV-1" source="HUSXWBsQ4Mg_SYfQPAs_-94">
          <mxGeometry relative="1" as="geometry">
            <mxPoint x="-1400.37" y="270" as="sourcePoint" />
            <mxPoint x="-1570" y="390" as="targetPoint" />
          </mxGeometry>
        </mxCell>
        <mxCell id="HUSXWBsQ4Mg_SYfQPAs_-96" value="" style="rounded=0;html=1;jettySize=auto;orthogonalLoop=1;fontSize=11;endArrow=block;endFill=0;endSize=8;strokeWidth=1;shadow=0;labelBackgroundColor=none;edgeStyle=orthogonalEdgeStyle;strokeColor=#36393d;fillColor=#eeeeee;fontColor=#000000;exitX=0.5;exitY=1;exitDx=0;exitDy=0;" edge="1" parent="WIyWlLk6GJQsqaUBKTNV-1">
          <mxGeometry relative="1" as="geometry">
            <mxPoint x="-1510" y="320" as="sourcePoint" />
            <mxPoint x="-1570" y="180" as="targetPoint" />
            <Array as="points">
              <mxPoint x="-1490" y="320" />
              <mxPoint x="-1490" y="180" />
            </Array>
          </mxGeometry>
        </mxCell>
        <mxCell id="HUSXWBsQ4Mg_SYfQPAs_-103" value="&lt;font style=&quot;font-size: 11px;&quot;&gt;ввод ch&lt;/font&gt;" style="shape=parallelogram;perimeter=parallelogramPerimeter;whiteSpace=wrap;html=1;fixedSize=1;strokeColor=#36393d;fillColor=#eeeeee;fontColor=#000000;" vertex="1" parent="WIyWlLk6GJQsqaUBKTNV-1">
          <mxGeometry x="-1630" y="200" width="120" height="50" as="geometry" />
        </mxCell>
        <mxCell id="HUSXWBsQ4Mg_SYfQPAs_-104" value="" style="rounded=0;html=1;jettySize=auto;orthogonalLoop=1;fontSize=11;endArrow=block;endFill=0;endSize=8;strokeWidth=1;shadow=0;labelBackgroundColor=none;edgeStyle=orthogonalEdgeStyle;strokeColor=#36393d;fillColor=#eeeeee;fontColor=#000000;" edge="1" parent="WIyWlLk6GJQsqaUBKTNV-1">
          <mxGeometry relative="1" as="geometry">
            <mxPoint x="-1570.0000000000002" y="170" as="sourcePoint" />
            <mxPoint x="-1569.7300000000002" y="200" as="targetPoint" />
          </mxGeometry>
        </mxCell>
        <mxCell id="HUSXWBsQ4Mg_SYfQPAs_-105" value="" style="rounded=0;html=1;jettySize=auto;orthogonalLoop=1;fontSize=11;endArrow=block;endFill=0;endSize=8;strokeWidth=1;shadow=0;labelBackgroundColor=none;edgeStyle=orthogonalEdgeStyle;strokeColor=#36393d;fillColor=#eeeeee;fontColor=#000000;" edge="1" parent="WIyWlLk6GJQsqaUBKTNV-1">
          <mxGeometry relative="1" as="geometry">
            <mxPoint x="-1570.2000000000003" y="250" as="sourcePoint" />
            <mxPoint x="-1569.9300000000003" y="280" as="targetPoint" />
          </mxGeometry>
        </mxCell>
        <mxCell id="HUSXWBsQ4Mg_SYfQPAs_-106" value="начало" style="ellipse;whiteSpace=wrap;html=1;strokeColor=#36393d;fillColor=#eeeeee;fontColor=#000000;" vertex="1" parent="WIyWlLk6GJQsqaUBKTNV-1">
          <mxGeometry x="-1020" y="30" width="120" height="50" as="geometry" />
        </mxCell>
        <mxCell id="HUSXWBsQ4Mg_SYfQPAs_-107" value="&lt;font style=&quot;font-size: 15px;&quot;&gt;вывод nint&lt;/font&gt;" style="shape=parallelogram;perimeter=parallelogramPerimeter;whiteSpace=wrap;html=1;fixedSize=1;strokeColor=#36393d;fillColor=#eeeeee;fontColor=#000000;" vertex="1" parent="WIyWlLk6GJQsqaUBKTNV-1">
          <mxGeometry x="-1020" y="180" width="120" height="50" as="geometry" />
        </mxCell>
        <mxCell id="HUSXWBsQ4Mg_SYfQPAs_-108" value="" style="rounded=0;html=1;jettySize=auto;orthogonalLoop=1;fontSize=11;endArrow=block;endFill=0;endSize=8;strokeWidth=1;shadow=0;labelBackgroundColor=none;edgeStyle=orthogonalEdgeStyle;strokeColor=#36393d;fillColor=#eeeeee;fontColor=#000000;" edge="1" parent="WIyWlLk6GJQsqaUBKTNV-1">
          <mxGeometry relative="1" as="geometry">
            <mxPoint x="-960.3400000000001" y="80" as="sourcePoint" />
            <mxPoint x="-960.0700000000002" y="110" as="targetPoint" />
          </mxGeometry>
        </mxCell>
        <mxCell id="HUSXWBsQ4Mg_SYfQPAs_-109" value="конец" style="ellipse;whiteSpace=wrap;html=1;strokeColor=#36393d;fillColor=#eeeeee;fontColor=#000000;" vertex="1" parent="WIyWlLk6GJQsqaUBKTNV-1">
          <mxGeometry x="-1020" y="400" width="120" height="50" as="geometry" />
        </mxCell>
        <mxCell id="HUSXWBsQ4Mg_SYfQPAs_-111" value="" style="rounded=0;html=1;jettySize=auto;orthogonalLoop=1;fontSize=11;endArrow=block;endFill=0;endSize=8;strokeWidth=1;shadow=0;labelBackgroundColor=none;edgeStyle=orthogonalEdgeStyle;strokeColor=#36393d;fillColor=#eeeeee;fontColor=#000000;" edge="1" parent="WIyWlLk6GJQsqaUBKTNV-1">
          <mxGeometry relative="1" as="geometry">
            <mxPoint x="-960.3400000000001" y="230" as="sourcePoint" />
            <mxPoint x="-960.0700000000002" y="260" as="targetPoint" />
          </mxGeometry>
        </mxCell>
        <mxCell id="HUSXWBsQ4Mg_SYfQPAs_-112" value="" style="rounded=0;html=1;jettySize=auto;orthogonalLoop=1;fontSize=11;endArrow=block;endFill=0;endSize=8;strokeWidth=1;shadow=0;labelBackgroundColor=none;edgeStyle=orthogonalEdgeStyle;strokeColor=#36393d;fillColor=#eeeeee;fontColor=#000000;" edge="1" parent="WIyWlLk6GJQsqaUBKTNV-1">
          <mxGeometry relative="1" as="geometry">
            <mxPoint x="-960.1700000000001" y="370" as="sourcePoint" />
            <mxPoint x="-959.9000000000001" y="400" as="targetPoint" />
          </mxGeometry>
        </mxCell>
        <mxCell id="HUSXWBsQ4Mg_SYfQPAs_-113" value="&lt;font color=&quot;#0a0a0a&quot;&gt;nint:=integral(b)-integral(a)&lt;/font&gt;" style="rounded=0;whiteSpace=wrap;html=1;fillColor=#EEEEEE;strokeColor=#36393d;" vertex="1" parent="WIyWlLk6GJQsqaUBKTNV-1">
          <mxGeometry x="-1020" y="110" width="120" height="40" as="geometry" />
        </mxCell>
        <mxCell id="HUSXWBsQ4Mg_SYfQPAs_-114" value="" style="endArrow=none;html=1;rounded=0;strokeColor=#36393d;" edge="1" parent="WIyWlLk6GJQsqaUBKTNV-1">
          <mxGeometry width="50" height="50" relative="1" as="geometry">
            <mxPoint x="-910.54" y="150" as="sourcePoint" />
            <mxPoint x="-910.54" y="110" as="targetPoint" />
          </mxGeometry>
        </mxCell>
        <mxCell id="HUSXWBsQ4Mg_SYfQPAs_-115" value="" style="endArrow=none;html=1;rounded=0;strokeColor=#36393d;" edge="1" parent="WIyWlLk6GJQsqaUBKTNV-1">
          <mxGeometry width="50" height="50" relative="1" as="geometry">
            <mxPoint x="-1010.21" y="150" as="sourcePoint" />
            <mxPoint x="-1010.21" y="110" as="targetPoint" />
          </mxGeometry>
        </mxCell>
        <mxCell id="HUSXWBsQ4Mg_SYfQPAs_-116" value="начало" style="ellipse;whiteSpace=wrap;html=1;strokeColor=#36393d;fillColor=#eeeeee;fontColor=#000000;" vertex="1" parent="WIyWlLk6GJQsqaUBKTNV-1">
          <mxGeometry x="-1630" y="495" width="120" height="50" as="geometry" />
        </mxCell>
        <mxCell id="HUSXWBsQ4Mg_SYfQPAs_-117" value="&lt;font style=&quot;font-size: 11px;&quot;&gt;Введите кол-во прямоугольников:&lt;/font&gt;" style="shape=parallelogram;perimeter=parallelogramPerimeter;whiteSpace=wrap;html=1;fixedSize=1;strokeColor=#36393d;fillColor=#eeeeee;fontColor=#000000;" vertex="1" parent="WIyWlLk6GJQsqaUBKTNV-1">
          <mxGeometry x="-1630" y="575" width="120" height="50" as="geometry" />
        </mxCell>
        <mxCell id="HUSXWBsQ4Mg_SYfQPAs_-118" value="" style="rounded=0;html=1;jettySize=auto;orthogonalLoop=1;fontSize=11;endArrow=block;endFill=0;endSize=8;strokeWidth=1;shadow=0;labelBackgroundColor=none;edgeStyle=orthogonalEdgeStyle;strokeColor=#36393d;fillColor=#eeeeee;fontColor=#000000;" edge="1" parent="WIyWlLk6GJQsqaUBKTNV-1">
          <mxGeometry relative="1" as="geometry">
            <mxPoint x="-1570.3400000000001" y="545" as="sourcePoint" />
            <mxPoint x="-1570.0700000000002" y="575" as="targetPoint" />
          </mxGeometry>
        </mxCell>
        <mxCell id="HUSXWBsQ4Mg_SYfQPAs_-119" value="конец" style="ellipse;whiteSpace=wrap;html=1;strokeColor=#36393d;fillColor=#eeeeee;fontColor=#000000;" vertex="1" parent="WIyWlLk6GJQsqaUBKTNV-1">
          <mxGeometry x="-1460" y="885" width="120" height="50" as="geometry" />
        </mxCell>
        <mxCell id="HUSXWBsQ4Mg_SYfQPAs_-120" value="&lt;span style=&quot;font-size: 13px;&quot;&gt;ввод h&lt;/span&gt;" style="shape=parallelogram;perimeter=parallelogramPerimeter;whiteSpace=wrap;html=1;fixedSize=1;strokeColor=#36393d;fillColor=#eeeeee;fontColor=#000000;" vertex="1" parent="WIyWlLk6GJQsqaUBKTNV-1">
          <mxGeometry x="-1630" y="655" width="120" height="50" as="geometry" />
        </mxCell>
        <mxCell id="HUSXWBsQ4Mg_SYfQPAs_-121" value="" style="rounded=0;html=1;jettySize=auto;orthogonalLoop=1;fontSize=11;endArrow=block;endFill=0;endSize=8;strokeWidth=1;shadow=0;labelBackgroundColor=none;edgeStyle=orthogonalEdgeStyle;strokeColor=#36393d;fillColor=#eeeeee;fontColor=#000000;" edge="1" parent="WIyWlLk6GJQsqaUBKTNV-1">
          <mxGeometry relative="1" as="geometry">
            <mxPoint x="-1570.3400000000001" y="625" as="sourcePoint" />
            <mxPoint x="-1570.0700000000002" y="655" as="targetPoint" />
          </mxGeometry>
        </mxCell>
        <mxCell id="HUSXWBsQ4Mg_SYfQPAs_-122" value="" style="rounded=0;html=1;jettySize=auto;orthogonalLoop=1;fontSize=11;endArrow=block;endFill=0;endSize=8;strokeWidth=1;shadow=0;labelBackgroundColor=none;edgeStyle=orthogonalEdgeStyle;strokeColor=#36393d;fillColor=#eeeeee;fontColor=#000000;" edge="1" parent="WIyWlLk6GJQsqaUBKTNV-1">
          <mxGeometry relative="1" as="geometry">
            <mxPoint x="-1400.17" y="855" as="sourcePoint" />
            <mxPoint x="-1399.9" y="885" as="targetPoint" />
          </mxGeometry>
        </mxCell>
        <mxCell id="HUSXWBsQ4Mg_SYfQPAs_-123" value="&lt;font color=&quot;#0a0a0a&quot;&gt;sint:=True&lt;/font&gt;" style="rounded=0;whiteSpace=wrap;html=1;fillColor=#EEEEEE;strokeColor=#36393d;" vertex="1" parent="WIyWlLk6GJQsqaUBKTNV-1">
          <mxGeometry x="-1020" y="259" width="120" height="40" as="geometry" />
        </mxCell>
        <mxCell id="HUSXWBsQ4Mg_SYfQPAs_-124" value="&lt;font color=&quot;#0a0a0a&quot;&gt;enter&lt;/font&gt;" style="rounded=0;whiteSpace=wrap;html=1;fillColor=#EEEEEE;strokeColor=#36393d;" vertex="1" parent="WIyWlLk6GJQsqaUBKTNV-1">
          <mxGeometry x="-1020" y="330" width="120" height="40" as="geometry" />
        </mxCell>
        <mxCell id="HUSXWBsQ4Mg_SYfQPAs_-125" value="" style="endArrow=none;html=1;rounded=0;strokeColor=#36393d;" edge="1" parent="WIyWlLk6GJQsqaUBKTNV-1">
          <mxGeometry width="50" height="50" relative="1" as="geometry">
            <mxPoint x="-910.54" y="370" as="sourcePoint" />
            <mxPoint x="-910.54" y="330" as="targetPoint" />
          </mxGeometry>
        </mxCell>
        <mxCell id="HUSXWBsQ4Mg_SYfQPAs_-126" value="" style="endArrow=none;html=1;rounded=0;strokeColor=#36393d;" edge="1" parent="WIyWlLk6GJQsqaUBKTNV-1">
          <mxGeometry width="50" height="50" relative="1" as="geometry">
            <mxPoint x="-1010.21" y="370" as="sourcePoint" />
            <mxPoint x="-1010.21" y="330" as="targetPoint" />
          </mxGeometry>
        </mxCell>
        <mxCell id="HUSXWBsQ4Mg_SYfQPAs_-127" value="" style="rounded=0;html=1;jettySize=auto;orthogonalLoop=1;fontSize=11;endArrow=block;endFill=0;endSize=8;strokeWidth=1;shadow=0;labelBackgroundColor=none;edgeStyle=orthogonalEdgeStyle;strokeColor=#36393d;fillColor=#eeeeee;fontColor=#000000;" edge="1" parent="WIyWlLk6GJQsqaUBKTNV-1">
          <mxGeometry relative="1" as="geometry">
            <mxPoint x="-960.21" y="300" as="sourcePoint" />
            <mxPoint x="-959.94" y="330" as="targetPoint" />
          </mxGeometry>
        </mxCell>
        <mxCell id="HUSXWBsQ4Mg_SYfQPAs_-128" value="&lt;div&gt;&lt;font color=&quot;#0a0a0a&quot;&gt;d := (b-a)/h&lt;/font&gt;&lt;/div&gt;&lt;div&gt;&lt;span style=&quot;color: rgb(10, 10, 10); background-color: initial;&quot;&gt;n := a&lt;/span&gt;&lt;/div&gt;" style="rounded=0;whiteSpace=wrap;html=1;fillColor=#eeeeee;strokeColor=#36393d;" vertex="1" parent="WIyWlLk6GJQsqaUBKTNV-1">
          <mxGeometry x="-1630" y="735" width="120" height="40" as="geometry" />
        </mxCell>
        <mxCell id="HUSXWBsQ4Mg_SYfQPAs_-129" value="" style="rounded=0;html=1;jettySize=auto;orthogonalLoop=1;fontSize=11;endArrow=block;endFill=0;endSize=8;strokeWidth=1;shadow=0;labelBackgroundColor=none;edgeStyle=orthogonalEdgeStyle;strokeColor=#36393d;fillColor=#eeeeee;fontColor=#000000;" edge="1" parent="WIyWlLk6GJQsqaUBKTNV-1">
          <mxGeometry relative="1" as="geometry">
            <mxPoint x="-1570.14" y="705" as="sourcePoint" />
            <mxPoint x="-1569.8700000000001" y="735" as="targetPoint" />
          </mxGeometry>
        </mxCell>
        <mxCell id="HUSXWBsQ4Mg_SYfQPAs_-130" value="&lt;font color=&quot;#0a0a0a&quot;&gt;Цикл 1&lt;br&gt;i &amp;gt; h&lt;br&gt;&lt;/font&gt;" style="strokeWidth=1;html=1;shape=mxgraph.flowchart.loop_limit;whiteSpace=wrap;fillColor=#eeeeee;strokeColor=#36393d;" vertex="1" parent="WIyWlLk6GJQsqaUBKTNV-1">
          <mxGeometry x="-1630" y="805" width="120" height="60" as="geometry" />
        </mxCell>
        <mxCell id="HUSXWBsQ4Mg_SYfQPAs_-131" value="" style="rounded=0;html=1;jettySize=auto;orthogonalLoop=1;fontSize=11;endArrow=block;endFill=0;endSize=8;strokeWidth=1;shadow=0;labelBackgroundColor=none;edgeStyle=orthogonalEdgeStyle;strokeColor=#36393d;fillColor=#eeeeee;fontColor=#000000;" edge="1" parent="WIyWlLk6GJQsqaUBKTNV-1">
          <mxGeometry relative="1" as="geometry">
            <mxPoint x="-1570.18" y="775" as="sourcePoint" />
            <mxPoint x="-1569.91" y="805" as="targetPoint" />
          </mxGeometry>
        </mxCell>
        <mxCell id="HUSXWBsQ4Mg_SYfQPAs_-133" value="" style="rounded=0;html=1;jettySize=auto;orthogonalLoop=1;fontSize=11;endArrow=block;endFill=0;endSize=8;strokeWidth=1;shadow=0;labelBackgroundColor=none;edgeStyle=orthogonalEdgeStyle;strokeColor=#36393d;fillColor=#eeeeee;fontColor=#000000;" edge="1" parent="WIyWlLk6GJQsqaUBKTNV-1">
          <mxGeometry relative="1" as="geometry">
            <mxPoint x="-1570.21" y="865" as="sourcePoint" />
            <mxPoint x="-1569.94" y="895" as="targetPoint" />
          </mxGeometry>
        </mxCell>
        <mxCell id="HUSXWBsQ4Mg_SYfQPAs_-134" value="&lt;font color=&quot;#0a0a0a&quot;&gt;n := n + d&lt;br&gt;i := i + 1&lt;/font&gt;" style="rounded=0;whiteSpace=wrap;html=1;fillColor=#eeeeee;strokeColor=#36393d;" vertex="1" parent="WIyWlLk6GJQsqaUBKTNV-1">
          <mxGeometry x="-1460" y="505" width="120" height="40" as="geometry" />
        </mxCell>
        <mxCell id="HUSXWBsQ4Mg_SYfQPAs_-135" value="&lt;font color=&quot;#0a0a0a&quot;&gt;npryam:=npryam+((lpr(n)*d))&lt;/font&gt;" style="rounded=0;whiteSpace=wrap;html=1;fillColor=#EEEEEE;strokeColor=#36393d;" vertex="1" parent="WIyWlLk6GJQsqaUBKTNV-1">
          <mxGeometry x="-1630" y="895" width="120" height="40" as="geometry" />
        </mxCell>
        <mxCell id="HUSXWBsQ4Mg_SYfQPAs_-136" value="" style="endArrow=none;html=1;rounded=0;strokeColor=#36393d;" edge="1" parent="WIyWlLk6GJQsqaUBKTNV-1">
          <mxGeometry width="50" height="50" relative="1" as="geometry">
            <mxPoint x="-1520.54" y="935" as="sourcePoint" />
            <mxPoint x="-1520.54" y="895" as="targetPoint" />
          </mxGeometry>
        </mxCell>
        <mxCell id="HUSXWBsQ4Mg_SYfQPAs_-137" value="" style="endArrow=none;html=1;rounded=0;strokeColor=#36393d;" edge="1" parent="WIyWlLk6GJQsqaUBKTNV-1">
          <mxGeometry width="50" height="50" relative="1" as="geometry">
            <mxPoint x="-1620.21" y="935" as="sourcePoint" />
            <mxPoint x="-1620.21" y="895" as="targetPoint" />
          </mxGeometry>
        </mxCell>
        <mxCell id="HUSXWBsQ4Mg_SYfQPAs_-138" value="" style="rounded=0;html=1;jettySize=auto;orthogonalLoop=1;fontSize=11;endArrow=block;endFill=0;endSize=8;strokeWidth=1;shadow=0;labelBackgroundColor=none;edgeStyle=orthogonalEdgeStyle;strokeColor=#36393d;fillColor=#eeeeee;fontColor=#000000;entryX=0.5;entryY=0;entryDx=0;entryDy=0;exitX=0.5;exitY=1;exitDx=0;exitDy=0;" edge="1" parent="WIyWlLk6GJQsqaUBKTNV-1" source="HUSXWBsQ4Mg_SYfQPAs_-135" target="HUSXWBsQ4Mg_SYfQPAs_-134">
          <mxGeometry relative="1" as="geometry">
            <mxPoint x="-1570" y="955" as="sourcePoint" />
            <mxPoint x="-1569.89" y="965" as="targetPoint" />
            <Array as="points">
              <mxPoint x="-1570" y="955" />
              <mxPoint x="-1490" y="955" />
              <mxPoint x="-1490" y="485" />
              <mxPoint x="-1400" y="485" />
            </Array>
          </mxGeometry>
        </mxCell>
        <mxCell id="HUSXWBsQ4Mg_SYfQPAs_-139" value="&lt;font color=&quot;#0a0a0a&quot;&gt;Цикл 1&lt;br&gt;&lt;/font&gt;" style="strokeWidth=1;html=1;shape=mxgraph.flowchart.loop_limit;whiteSpace=wrap;fillColor=#eeeeee;strokeColor=#36393d;direction=west;" vertex="1" parent="WIyWlLk6GJQsqaUBKTNV-1">
          <mxGeometry x="-1460" y="575" width="120" height="60" as="geometry" />
        </mxCell>
        <mxCell id="HUSXWBsQ4Mg_SYfQPAs_-140" value="" style="rounded=0;html=1;jettySize=auto;orthogonalLoop=1;fontSize=11;endArrow=block;endFill=0;endSize=8;strokeWidth=1;shadow=0;labelBackgroundColor=none;edgeStyle=orthogonalEdgeStyle;strokeColor=#36393d;fillColor=#eeeeee;fontColor=#000000;" edge="1" parent="WIyWlLk6GJQsqaUBKTNV-1">
          <mxGeometry relative="1" as="geometry">
            <mxPoint x="-1400.13" y="545" as="sourcePoint" />
            <mxPoint x="-1399.8600000000001" y="575" as="targetPoint" />
          </mxGeometry>
        </mxCell>
        <mxCell id="HUSXWBsQ4Mg_SYfQPAs_-141" value="" style="rounded=0;html=1;jettySize=auto;orthogonalLoop=1;fontSize=11;endArrow=block;endFill=0;endSize=8;strokeWidth=1;shadow=0;labelBackgroundColor=none;edgeStyle=orthogonalEdgeStyle;strokeColor=#36393d;fillColor=#eeeeee;fontColor=#000000;" edge="1" parent="WIyWlLk6GJQsqaUBKTNV-1">
          <mxGeometry relative="1" as="geometry">
            <mxPoint x="-1400.14" y="635" as="sourcePoint" />
            <mxPoint x="-1399.8700000000001" y="665" as="targetPoint" />
          </mxGeometry>
        </mxCell>
        <mxCell id="HUSXWBsQ4Mg_SYfQPAs_-142" value="&lt;span style=&quot;font-size: 13px;&quot;&gt;вывод npryam&lt;/span&gt;" style="shape=parallelogram;perimeter=parallelogramPerimeter;whiteSpace=wrap;html=1;fixedSize=1;strokeColor=#36393d;fillColor=#eeeeee;fontColor=#000000;" vertex="1" parent="WIyWlLk6GJQsqaUBKTNV-1">
          <mxGeometry x="-1460" y="665" width="120" height="50" as="geometry" />
        </mxCell>
        <mxCell id="HUSXWBsQ4Mg_SYfQPAs_-143" value="&lt;font color=&quot;#0a0a0a&quot;&gt;spr := True&lt;/font&gt;" style="rounded=0;whiteSpace=wrap;html=1;fillColor=#eeeeee;strokeColor=#36393d;" vertex="1" parent="WIyWlLk6GJQsqaUBKTNV-1">
          <mxGeometry x="-1460" y="745" width="120" height="40" as="geometry" />
        </mxCell>
        <mxCell id="HUSXWBsQ4Mg_SYfQPAs_-144" value="" style="rounded=0;html=1;jettySize=auto;orthogonalLoop=1;fontSize=11;endArrow=block;endFill=0;endSize=8;strokeWidth=1;shadow=0;labelBackgroundColor=none;edgeStyle=orthogonalEdgeStyle;strokeColor=#36393d;fillColor=#eeeeee;fontColor=#000000;" edge="1" parent="WIyWlLk6GJQsqaUBKTNV-1">
          <mxGeometry relative="1" as="geometry">
            <mxPoint x="-1400.24" y="715" as="sourcePoint" />
            <mxPoint x="-1399.97" y="745" as="targetPoint" />
          </mxGeometry>
        </mxCell>
        <mxCell id="HUSXWBsQ4Mg_SYfQPAs_-145" value="&lt;font color=&quot;#0a0a0a&quot;&gt;enter&lt;/font&gt;" style="rounded=0;whiteSpace=wrap;html=1;fillColor=#EEEEEE;strokeColor=#36393d;" vertex="1" parent="WIyWlLk6GJQsqaUBKTNV-1">
          <mxGeometry x="-1460" y="815" width="120" height="40" as="geometry" />
        </mxCell>
        <mxCell id="HUSXWBsQ4Mg_SYfQPAs_-146" value="" style="endArrow=none;html=1;rounded=0;strokeColor=#36393d;" edge="1" parent="WIyWlLk6GJQsqaUBKTNV-1">
          <mxGeometry width="50" height="50" relative="1" as="geometry">
            <mxPoint x="-1350.54" y="855" as="sourcePoint" />
            <mxPoint x="-1350.54" y="815" as="targetPoint" />
          </mxGeometry>
        </mxCell>
        <mxCell id="HUSXWBsQ4Mg_SYfQPAs_-147" value="" style="endArrow=none;html=1;rounded=0;strokeColor=#36393d;" edge="1" parent="WIyWlLk6GJQsqaUBKTNV-1">
          <mxGeometry width="50" height="50" relative="1" as="geometry">
            <mxPoint x="-1450.21" y="855" as="sourcePoint" />
            <mxPoint x="-1450.21" y="815" as="targetPoint" />
          </mxGeometry>
        </mxCell>
        <mxCell id="HUSXWBsQ4Mg_SYfQPAs_-148" value="" style="rounded=0;html=1;jettySize=auto;orthogonalLoop=1;fontSize=11;endArrow=block;endFill=0;endSize=8;strokeWidth=1;shadow=0;labelBackgroundColor=none;edgeStyle=orthogonalEdgeStyle;strokeColor=#36393d;fillColor=#eeeeee;fontColor=#000000;" edge="1" parent="WIyWlLk6GJQsqaUBKTNV-1">
          <mxGeometry relative="1" as="geometry">
            <mxPoint x="-1400.14" y="785" as="sourcePoint" />
            <mxPoint x="-1399.8700000000001" y="815" as="targetPoint" />
          </mxGeometry>
        </mxCell>
        <mxCell id="HUSXWBsQ4Mg_SYfQPAs_-150" value="начало" style="ellipse;whiteSpace=wrap;html=1;strokeColor=#36393d;fillColor=#eeeeee;fontColor=#000000;" vertex="1" parent="WIyWlLk6GJQsqaUBKTNV-1">
          <mxGeometry x="-1300" y="505" width="120" height="50" as="geometry" />
        </mxCell>
        <mxCell id="HUSXWBsQ4Mg_SYfQPAs_-152" value="" style="rounded=0;html=1;jettySize=auto;orthogonalLoop=1;fontSize=11;endArrow=block;endFill=0;endSize=8;strokeWidth=1;shadow=0;labelBackgroundColor=none;edgeStyle=orthogonalEdgeStyle;strokeColor=#36393d;fillColor=#eeeeee;fontColor=#000000;" edge="1" parent="WIyWlLk6GJQsqaUBKTNV-1">
          <mxGeometry relative="1" as="geometry">
            <mxPoint x="-1240.3400000000001" y="555" as="sourcePoint" />
            <mxPoint x="-1240.0700000000002" y="585" as="targetPoint" />
          </mxGeometry>
        </mxCell>
        <mxCell id="HUSXWBsQ4Mg_SYfQPAs_-153" value="конец" style="ellipse;whiteSpace=wrap;html=1;strokeColor=#36393d;fillColor=#eeeeee;fontColor=#000000;" vertex="1" parent="WIyWlLk6GJQsqaUBKTNV-1">
          <mxGeometry x="-1300" y="846" width="120" height="50" as="geometry" />
        </mxCell>
        <mxCell id="HUSXWBsQ4Mg_SYfQPAs_-155" value="" style="rounded=0;html=1;jettySize=auto;orthogonalLoop=1;fontSize=11;endArrow=block;endFill=0;endSize=8;strokeWidth=1;shadow=0;labelBackgroundColor=none;edgeStyle=orthogonalEdgeStyle;strokeColor=#36393d;fillColor=#eeeeee;fontColor=#000000;" edge="1" parent="WIyWlLk6GJQsqaUBKTNV-1">
          <mxGeometry relative="1" as="geometry">
            <mxPoint x="-1240.17" y="816" as="sourcePoint" />
            <mxPoint x="-1239.9" y="846" as="targetPoint" />
          </mxGeometry>
        </mxCell>
        <mxCell id="HUSXWBsQ4Mg_SYfQPAs_-160" value="&lt;font color=&quot;#0a0a0a&quot;&gt;enter&lt;/font&gt;" style="rounded=0;whiteSpace=wrap;html=1;fillColor=#EEEEEE;strokeColor=#36393d;" vertex="1" parent="WIyWlLk6GJQsqaUBKTNV-1">
          <mxGeometry x="-1300" y="776" width="120" height="40" as="geometry" />
        </mxCell>
        <mxCell id="HUSXWBsQ4Mg_SYfQPAs_-161" value="" style="endArrow=none;html=1;rounded=0;strokeColor=#36393d;" edge="1" parent="WIyWlLk6GJQsqaUBKTNV-1">
          <mxGeometry width="50" height="50" relative="1" as="geometry">
            <mxPoint x="-1190.54" y="816" as="sourcePoint" />
            <mxPoint x="-1190.54" y="776" as="targetPoint" />
          </mxGeometry>
        </mxCell>
        <mxCell id="HUSXWBsQ4Mg_SYfQPAs_-162" value="" style="endArrow=none;html=1;rounded=0;strokeColor=#36393d;" edge="1" parent="WIyWlLk6GJQsqaUBKTNV-1">
          <mxGeometry width="50" height="50" relative="1" as="geometry">
            <mxPoint x="-1290.21" y="816" as="sourcePoint" />
            <mxPoint x="-1290.21" y="776" as="targetPoint" />
          </mxGeometry>
        </mxCell>
        <mxCell id="HUSXWBsQ4Mg_SYfQPAs_-164" value="&lt;span style=&quot;font-size: 14px;&quot;&gt;spr и sint&lt;/span&gt;" style="rhombus;whiteSpace=wrap;html=1;shadow=0;fontFamily=Helvetica;fontSize=12;align=center;strokeWidth=1;spacing=6;spacingTop=-4;strokeColor=#36393d;fillColor=#eeeeee;fontColor=#000000;" vertex="1" parent="WIyWlLk6GJQsqaUBKTNV-1">
          <mxGeometry x="-1300" y="585" width="120" height="80" as="geometry" />
        </mxCell>
        <mxCell id="HUSXWBsQ4Mg_SYfQPAs_-165" value="" style="rounded=0;html=1;jettySize=auto;orthogonalLoop=1;fontSize=11;endArrow=block;endFill=0;endSize=8;strokeWidth=1;shadow=0;labelBackgroundColor=none;edgeStyle=orthogonalEdgeStyle;strokeColor=#36393d;fillColor=#eeeeee;fontColor=#000000;exitX=0.5;exitY=1;exitDx=0;exitDy=0;" edge="1" parent="WIyWlLk6GJQsqaUBKTNV-1" source="HUSXWBsQ4Mg_SYfQPAs_-164">
          <mxGeometry relative="1" as="geometry">
            <mxPoint x="-1070.37" y="575" as="sourcePoint" />
            <mxPoint x="-1240" y="695" as="targetPoint" />
          </mxGeometry>
        </mxCell>
        <mxCell id="HUSXWBsQ4Mg_SYfQPAs_-166" value="" style="rounded=0;html=1;jettySize=auto;orthogonalLoop=1;fontSize=11;endArrow=block;endFill=0;endSize=8;strokeWidth=1;shadow=0;labelBackgroundColor=none;edgeStyle=orthogonalEdgeStyle;strokeColor=#36393d;fillColor=#eeeeee;fontColor=#000000;exitX=0.5;exitY=1;exitDx=0;exitDy=0;" edge="1" parent="WIyWlLk6GJQsqaUBKTNV-1">
          <mxGeometry relative="1" as="geometry">
            <mxPoint x="-1180" y="625" as="sourcePoint" />
            <mxPoint x="-1100" y="655" as="targetPoint" />
            <Array as="points">
              <mxPoint x="-1100" y="625" />
              <mxPoint x="-1100" y="645" />
            </Array>
          </mxGeometry>
        </mxCell>
        <mxCell id="HUSXWBsQ4Mg_SYfQPAs_-167" value="&#39;Погрешность:&#39;&lt;br&gt;nint-npryam" style="shape=parallelogram;perimeter=parallelogramPerimeter;whiteSpace=wrap;html=1;fixedSize=1;strokeColor=#36393d;fillColor=#eeeeee;fontColor=#000000;" vertex="1" parent="WIyWlLk6GJQsqaUBKTNV-1">
          <mxGeometry x="-1300" y="695" width="120" height="50" as="geometry" />
        </mxCell>
        <mxCell id="HUSXWBsQ4Mg_SYfQPAs_-168" value="&lt;font style=&quot;font-size: 11px;&quot;&gt;Не все выполнено&lt;/font&gt;" style="shape=parallelogram;perimeter=parallelogramPerimeter;whiteSpace=wrap;html=1;fixedSize=1;strokeColor=#36393d;fillColor=#eeeeee;fontColor=#000000;" vertex="1" parent="WIyWlLk6GJQsqaUBKTNV-1">
          <mxGeometry x="-1160" y="655" width="120" height="50" as="geometry" />
        </mxCell>
        <mxCell id="HUSXWBsQ4Mg_SYfQPAs_-169" value="" style="rounded=0;html=1;jettySize=auto;orthogonalLoop=1;fontSize=11;endArrow=block;endFill=0;endSize=8;strokeWidth=1;shadow=0;labelBackgroundColor=none;edgeStyle=orthogonalEdgeStyle;strokeColor=#36393d;fillColor=#eeeeee;fontColor=#000000;exitX=0.5;exitY=1;exitDx=0;exitDy=0;" edge="1" parent="WIyWlLk6GJQsqaUBKTNV-1">
          <mxGeometry relative="1" as="geometry">
            <mxPoint x="-1240.22" y="745" as="sourcePoint" />
            <mxPoint x="-1240.22" y="775" as="targetPoint" />
          </mxGeometry>
        </mxCell>
        <mxCell id="HUSXWBsQ4Mg_SYfQPAs_-170" value="" style="rounded=0;html=1;jettySize=auto;orthogonalLoop=1;fontSize=11;endArrow=block;endFill=0;endSize=8;strokeWidth=1;shadow=0;labelBackgroundColor=none;edgeStyle=orthogonalEdgeStyle;strokeColor=#36393d;fillColor=#eeeeee;fontColor=#000000;exitX=0.5;exitY=1;exitDx=0;exitDy=0;" edge="1" parent="WIyWlLk6GJQsqaUBKTNV-1" source="HUSXWBsQ4Mg_SYfQPAs_-168">
          <mxGeometry relative="1" as="geometry">
            <mxPoint x="-1120" y="740" as="sourcePoint" />
            <mxPoint x="-1240" y="755" as="targetPoint" />
            <Array as="points">
              <mxPoint x="-1100" y="755" />
            </Array>
          </mxGeometry>
        </mxCell>
        <mxCell id="HUSXWBsQ4Mg_SYfQPAs_-172" value="начало" style="ellipse;whiteSpace=wrap;html=1;strokeColor=#36393d;fillColor=#eeeeee;fontColor=#000000;" vertex="1" parent="WIyWlLk6GJQsqaUBKTNV-1">
          <mxGeometry x="-980" y="505" width="120" height="50" as="geometry" />
        </mxCell>
        <mxCell id="HUSXWBsQ4Mg_SYfQPAs_-173" value="&lt;span style=&quot;font-size: 15px;&quot;&gt;ввод a,b&lt;/span&gt;" style="shape=parallelogram;perimeter=parallelogramPerimeter;whiteSpace=wrap;html=1;fixedSize=1;strokeColor=#36393d;fillColor=#eeeeee;fontColor=#000000;" vertex="1" parent="WIyWlLk6GJQsqaUBKTNV-1">
          <mxGeometry x="-980" y="655" width="120" height="50" as="geometry" />
        </mxCell>
        <mxCell id="HUSXWBsQ4Mg_SYfQPAs_-174" value="" style="rounded=0;html=1;jettySize=auto;orthogonalLoop=1;fontSize=11;endArrow=block;endFill=0;endSize=8;strokeWidth=1;shadow=0;labelBackgroundColor=none;edgeStyle=orthogonalEdgeStyle;strokeColor=#36393d;fillColor=#eeeeee;fontColor=#000000;" edge="1" parent="WIyWlLk6GJQsqaUBKTNV-1">
          <mxGeometry relative="1" as="geometry">
            <mxPoint x="-920.3400000000001" y="555" as="sourcePoint" />
            <mxPoint x="-920.0700000000002" y="585" as="targetPoint" />
          </mxGeometry>
        </mxCell>
        <mxCell id="HUSXWBsQ4Mg_SYfQPAs_-175" value="конец" style="ellipse;whiteSpace=wrap;html=1;strokeColor=#36393d;fillColor=#eeeeee;fontColor=#000000;" vertex="1" parent="WIyWlLk6GJQsqaUBKTNV-1">
          <mxGeometry x="-980" y="875" width="120" height="50" as="geometry" />
        </mxCell>
        <mxCell id="HUSXWBsQ4Mg_SYfQPAs_-176" value="" style="rounded=0;html=1;jettySize=auto;orthogonalLoop=1;fontSize=11;endArrow=block;endFill=0;endSize=8;strokeWidth=1;shadow=0;labelBackgroundColor=none;edgeStyle=orthogonalEdgeStyle;strokeColor=#36393d;fillColor=#eeeeee;fontColor=#000000;" edge="1" parent="WIyWlLk6GJQsqaUBKTNV-1">
          <mxGeometry relative="1" as="geometry">
            <mxPoint x="-920.3400000000001" y="705" as="sourcePoint" />
            <mxPoint x="-920.0700000000002" y="735" as="targetPoint" />
          </mxGeometry>
        </mxCell>
        <mxCell id="HUSXWBsQ4Mg_SYfQPAs_-177" value="" style="rounded=0;html=1;jettySize=auto;orthogonalLoop=1;fontSize=11;endArrow=block;endFill=0;endSize=8;strokeWidth=1;shadow=0;labelBackgroundColor=none;edgeStyle=orthogonalEdgeStyle;strokeColor=#36393d;fillColor=#eeeeee;fontColor=#000000;" edge="1" parent="WIyWlLk6GJQsqaUBKTNV-1">
          <mxGeometry relative="1" as="geometry">
            <mxPoint x="-920.1700000000001" y="845" as="sourcePoint" />
            <mxPoint x="-919.9000000000001" y="875" as="targetPoint" />
          </mxGeometry>
        </mxCell>
        <mxCell id="HUSXWBsQ4Mg_SYfQPAs_-181" value="&lt;div&gt;&lt;font color=&quot;#0a0a0a&quot;&gt;spr:=False;&lt;/font&gt;&lt;/div&gt;&lt;div&gt;&lt;span style=&quot;color: rgb(10, 10, 10); background-color: initial;&quot;&gt;sint:=False;&lt;/span&gt;&lt;/div&gt;" style="rounded=0;whiteSpace=wrap;html=1;fillColor=#EEEEEE;strokeColor=#36393d;" vertex="1" parent="WIyWlLk6GJQsqaUBKTNV-1">
          <mxGeometry x="-980" y="734" width="120" height="40" as="geometry" />
        </mxCell>
        <mxCell id="HUSXWBsQ4Mg_SYfQPAs_-182" value="&lt;font color=&quot;#0a0a0a&quot;&gt;enter&lt;/font&gt;" style="rounded=0;whiteSpace=wrap;html=1;fillColor=#EEEEEE;strokeColor=#36393d;" vertex="1" parent="WIyWlLk6GJQsqaUBKTNV-1">
          <mxGeometry x="-980" y="805" width="120" height="40" as="geometry" />
        </mxCell>
        <mxCell id="HUSXWBsQ4Mg_SYfQPAs_-183" value="" style="endArrow=none;html=1;rounded=0;strokeColor=#36393d;" edge="1" parent="WIyWlLk6GJQsqaUBKTNV-1">
          <mxGeometry width="50" height="50" relative="1" as="geometry">
            <mxPoint x="-870.54" y="845" as="sourcePoint" />
            <mxPoint x="-870.54" y="805" as="targetPoint" />
          </mxGeometry>
        </mxCell>
        <mxCell id="HUSXWBsQ4Mg_SYfQPAs_-184" value="" style="endArrow=none;html=1;rounded=0;strokeColor=#36393d;" edge="1" parent="WIyWlLk6GJQsqaUBKTNV-1">
          <mxGeometry width="50" height="50" relative="1" as="geometry">
            <mxPoint x="-970.21" y="845" as="sourcePoint" />
            <mxPoint x="-970.21" y="805" as="targetPoint" />
          </mxGeometry>
        </mxCell>
        <mxCell id="HUSXWBsQ4Mg_SYfQPAs_-185" value="" style="rounded=0;html=1;jettySize=auto;orthogonalLoop=1;fontSize=11;endArrow=block;endFill=0;endSize=8;strokeWidth=1;shadow=0;labelBackgroundColor=none;edgeStyle=orthogonalEdgeStyle;strokeColor=#36393d;fillColor=#eeeeee;fontColor=#000000;" edge="1" parent="WIyWlLk6GJQsqaUBKTNV-1">
          <mxGeometry relative="1" as="geometry">
            <mxPoint x="-920.21" y="775" as="sourcePoint" />
            <mxPoint x="-919.94" y="805" as="targetPoint" />
          </mxGeometry>
        </mxCell>
        <mxCell id="HUSXWBsQ4Mg_SYfQPAs_-186" value="&lt;font style=&quot;font-size: 12px;&quot;&gt;Введите новые значения a и b&lt;/font&gt;" style="shape=parallelogram;perimeter=parallelogramPerimeter;whiteSpace=wrap;html=1;fixedSize=1;strokeColor=#36393d;fillColor=#eeeeee;fontColor=#000000;" vertex="1" parent="WIyWlLk6GJQsqaUBKTNV-1">
          <mxGeometry x="-980" y="585" width="120" height="50" as="geometry" />
        </mxCell>
      </root>
    </mxGraphModel>
  </diagram>
</mxfile>
